<svg id="svg" version="1.1" xmlns="http://www.w3.org/2000/svg" xmlns:xlink="http://www.w3.org/1999/xlink" width="25" height="27.984" viewBox="0, 0, 400,400"><g id="svgg"><path id="path0" d="M13.219 25.580 C 12.900 25.782,12.525 25.877,12.386 25.791 C 11.828 25.447,11.696 117.060,12.253 117.606 C 12.444 117.793,13.320 118.004,14.200 118.073 C 15.809 118.201,16.646 119.732,15.501 120.455 C 13.879 121.480,22.701 121.529,200.080 121.466 L 384.555 121.400 384.621 119.200 C 384.658 117.990,384.608 117.225,384.511 117.500 C 384.164 118.477,16.138 118.204,15.614 117.226 C 15.128 116.319,15.060 32.229,15.541 27.900 L 15.842 25.200 14.821 25.206 C 14.259 25.209,13.539 25.378,13.219 25.580 M22.583 120.372 C 22.879 120.851,22.126 121.325,21.593 120.996 C 21.146 120.719,21.440 120.000,22.000 120.000 C 22.194 120.000,22.456 120.168,22.583 120.372 M166.006 158.074 C 165.459 158.277,164.694 158.361,164.306 158.260 C 163.274 157.990,163.122 158.559,164.068 159.149 C 164.517 159.430,164.766 159.468,164.621 159.234 C 164.461 158.975,164.599 158.902,164.977 159.046 C 165.317 159.177,165.501 159.436,165.387 159.622 C 165.272 159.808,165.811 160.078,166.585 160.224 C 167.360 160.369,167.894 160.648,167.773 160.844 C 167.652 161.040,167.844 161.200,168.200 161.200 C 168.556 161.200,168.736 161.020,168.600 160.800 C 168.464 160.580,168.533 160.400,168.753 160.400 C 168.974 160.400,169.085 160.040,169.000 159.600 C 168.915 159.160,169.038 158.800,169.272 158.800 C 169.559 158.800,169.549 158.620,169.241 158.250 C 168.714 157.614,167.430 157.544,166.006 158.074 M23.400 158.365 L 22.200 158.635 23.265 158.916 C 23.976 159.104,24.294 159.430,24.221 159.899 C 24.094 160.727,24.689 161.201,25.800 161.154 C 26.459 161.126,26.424 161.064,25.600 160.800 L 24.600 160.480 25.724 160.440 C 26.363 160.417,26.741 160.228,26.600 160.000 C 26.464 159.780,26.678 159.587,27.076 159.572 C 27.722 159.547,27.714 159.507,27.000 159.200 L 26.200 158.856 27.000 158.800 L 27.800 158.744 27.000 158.400 C 26.067 157.999,25.069 157.989,23.400 158.365 M53.639 158.685 C 53.226 158.849,53.332 159.057,54.039 159.479 L 55.000 160.050 54.000 159.845 C 53.046 159.649,53.036 159.666,53.776 160.220 C 54.335 160.637,54.391 160.803,53.976 160.812 C 53.563 160.821,53.605 160.943,54.124 161.246 C 54.858 161.672,56.331 161.398,55.856 160.923 C 55.714 160.781,55.914 160.304,56.299 159.864 C 56.798 159.294,56.827 159.162,56.400 159.408 C 55.883 159.706,55.876 159.660,56.349 159.077 C 56.919 158.373,55.093 158.109,53.639 158.685 M53.600 162.074 C 52.170 162.253,50.010 162.484,48.800 162.587 C 47.590 162.690,45.506 162.923,44.169 163.106 C 40.487 163.607,32.230 163.313,28.313 162.540 C 25.043 161.895,24.779 161.895,24.081 162.526 C 23.672 162.897,23.047 163.200,22.692 163.200 C 22.337 163.200,21.945 163.365,21.821 163.567 C 21.696 163.768,20.930 163.880,20.119 163.816 C 18.296 163.671,17.372 164.427,17.981 165.564 C 18.211 165.995,18.400 166.799,18.400 167.350 C 18.400 167.902,18.608 168.481,18.862 168.638 C 19.131 168.805,19.216 168.749,19.064 168.504 C 18.921 168.273,19.059 167.986,19.369 167.867 C 19.680 167.748,20.027 167.893,20.140 168.189 C 20.264 168.510,19.993 168.815,19.469 168.947 C 17.652 169.403,17.031 171.324,17.834 174.004 C 18.222 175.300,18.688 176.269,18.870 176.157 C 19.051 176.045,19.200 176.164,19.200 176.423 C 19.200 176.696,19.535 176.806,20.000 176.684 C 20.542 176.542,20.800 176.672,20.800 177.086 C 20.800 177.585,20.911 177.606,21.400 177.200 C 22.022 176.684,22.196 177.147,22.027 178.866 C 21.991 179.233,22.244 180.210,22.590 181.037 C 22.958 181.919,23.071 182.689,22.861 182.899 C 22.665 183.095,22.593 184.043,22.702 185.005 C 22.947 187.182,22.097 191.877,21.409 192.141 C 21.098 192.260,20.977 192.743,21.098 193.377 C 21.282 194.341,21.225 194.390,20.304 194.040 C 19.369 193.684,19.320 193.732,19.454 194.878 C 19.574 195.915,19.508 196.021,19.002 195.602 C 18.487 195.174,18.417 195.434,18.476 197.555 C 18.524 199.313,18.696 200.000,19.086 200.000 C 19.504 200.000,19.530 200.183,19.200 200.800 C 18.840 201.473,18.896 201.600,19.554 201.600 C 20.378 201.600,20.524 202.011,21.045 205.800 C 21.196 206.900,21.826 208.738,22.446 209.884 C 23.240 211.353,23.571 212.533,23.566 213.884 C 23.562 214.938,23.572 216.970,23.587 218.400 C 23.637 223.018,21.964 228.604,20.861 227.501 C 20.231 226.871,20.246 227.625,20.891 229.041 L 21.383 230.120 21.652 229.160 C 21.898 228.278,21.923 228.299,21.960 229.420 C 22.019 231.218,22.650 231.599,25.580 231.606 C 28.319 231.613,29.492 232.003,29.028 232.755 C 28.601 233.445,32.169 233.521,38.104 232.949 C 40.344 232.732,42.273 232.721,42.632 232.922 C 43.172 233.224,45.194 233.541,47.200 233.638 C 47.530 233.654,48.070 233.769,48.400 233.894 C 49.332 234.246,50.144 234.444,50.800 234.478 C 51.130 234.495,51.602 234.668,51.849 234.861 C 52.096 235.055,52.636 235.106,53.049 234.974 C 53.760 234.747,53.759 234.768,53.024 235.367 C 52.458 235.828,52.404 236.002,52.824 236.006 C 53.308 236.011,53.311 236.068,52.847 236.362 C 52.418 236.634,52.500 236.778,53.216 237.005 L 54.138 237.298 53.209 237.795 C 52.356 238.252,52.445 238.297,54.295 238.338 L 56.311 238.384 56.176 236.986 C 56.101 236.218,55.914 235.384,55.758 235.133 C 55.585 234.852,55.654 234.786,55.938 234.962 C 56.192 235.119,56.400 235.046,56.400 234.800 C 56.400 234.554,56.580 234.464,56.800 234.600 C 57.020 234.736,57.200 234.646,57.200 234.400 C 57.200 234.154,57.380 234.064,57.600 234.200 C 57.820 234.336,58.000 234.302,58.000 234.124 C 58.000 233.946,81.085 233.851,109.300 233.914 C 162.202 234.032,163.080 234.015,163.482 232.878 C 164.195 230.863,166.662 229.987,167.084 231.600 C 167.199 232.040,167.474 232.400,167.696 232.400 C 167.917 232.400,167.851 232.699,167.549 233.065 C 167.107 233.600,167.101 233.764,167.517 233.904 C 167.896 234.032,167.918 234.217,167.597 234.603 C 167.290 234.973,167.287 235.207,167.587 235.392 C 167.821 235.537,167.909 235.823,167.783 236.028 C 167.656 236.232,167.818 236.400,168.141 236.400 C 168.598 236.400,168.714 235.899,168.658 234.166 C 168.618 232.937,168.703 231.860,168.847 231.771 C 168.990 231.682,169.232 230.753,169.385 229.705 C 169.538 228.657,169.935 227.377,170.267 226.859 C 170.600 226.342,170.781 225.569,170.669 225.143 C 170.507 224.524,170.622 224.416,171.233 224.611 C 171.893 224.820,172.000 224.651,172.000 223.403 C 172.000 222.606,172.135 222.035,172.300 222.135 C 172.465 222.236,172.627 221.617,172.660 220.760 C 172.693 219.903,172.558 219.302,172.360 219.425 C 172.155 219.552,172.000 217.681,172.000 215.073 C 172.000 211.372,171.878 210.397,171.362 209.968 C 170.739 209.452,170.776 207.571,171.442 205.835 C 171.624 205.361,171.436 205.200,170.697 205.200 C 169.760 205.200,169.723 205.114,170.000 203.600 C 170.272 202.111,170.229 202.000,169.369 202.000 C 168.662 202.000,168.482 201.813,168.599 201.203 C 168.684 200.764,168.332 199.905,167.815 199.291 C 166.988 198.308,166.938 198.063,167.393 197.214 C 167.825 196.406,167.811 196.154,167.305 195.647 C 166.767 195.110,166.836 194.924,167.943 193.935 C 168.732 193.229,169.097 192.596,168.944 192.198 C 168.811 191.853,169.006 191.235,169.377 190.825 C 169.883 190.266,169.983 189.714,169.776 188.613 C 169.551 187.415,169.645 187.044,170.285 186.596 C 170.831 186.213,171.090 185.525,171.141 184.323 C 171.181 183.376,171.356 181.296,171.530 179.703 C 171.808 177.154,171.764 176.779,171.164 176.589 C 170.701 176.442,170.552 176.104,170.701 175.535 C 170.841 175.001,170.682 174.566,170.261 174.330 C 169.604 173.963,169.597 172.276,170.238 169.112 C 170.530 167.670,168.590 164.944,167.762 165.632 C 167.467 165.876,166.996 165.993,166.713 165.892 C 166.431 165.791,165.897 165.864,165.527 166.054 C 165.031 166.308,164.791 166.201,164.615 165.646 C 164.483 165.232,163.838 164.331,163.182 163.644 L 161.988 162.394 109.778 162.403 C 81.063 162.408,57.261 162.263,56.885 162.080 C 56.508 161.898,55.030 161.895,53.600 162.074 M237.800 162.848 C 235.380 163.038,232.050 163.285,230.400 163.395 C 228.750 163.505,226.140 163.709,224.600 163.849 C 223.060 163.989,220.855 164.111,219.700 164.120 C 218.501 164.130,217.583 164.322,217.559 164.568 C 217.448 165.758,217.715 167.849,218.028 168.230 C 218.236 168.483,218.209 168.831,217.961 169.079 C 217.342 169.698,217.247 171.405,217.668 174.369 C 217.873 175.816,218.062 177.209,218.087 177.465 C 218.119 177.788,218.425 177.819,219.093 177.565 C 220.692 176.957,221.568 177.098,220.624 177.813 C 220.196 178.136,220.033 178.400,220.261 178.400 C 220.488 178.400,221.012 179.028,221.425 179.795 L 222.177 181.190 223.688 179.714 C 225.093 178.343,225.200 178.302,225.200 179.145 C 225.200 181.181,227.871 182.746,228.535 181.100 C 228.672 180.761,228.747 180.796,228.768 181.206 C 228.786 181.540,229.627 182.530,230.638 183.406 L 232.476 185.000 230.744 185.200 L 229.011 185.400 230.206 186.538 C 231.378 187.656,231.382 187.671,230.400 187.385 C 228.120 186.720,227.542 186.347,226.776 185.049 C 225.948 183.646,224.051 182.601,224.770 183.944 C 224.966 184.310,225.522 184.967,226.006 185.404 C 226.490 185.842,227.254 186.716,227.703 187.346 L 228.520 188.493 227.663 188.034 C 227.191 187.781,226.410 187.040,225.927 186.387 C 225.301 185.539,224.714 185.200,223.874 185.200 L 222.699 185.200 224.349 186.709 C 225.257 187.539,226.000 188.475,226.000 188.789 C 226.000 189.233,225.893 189.253,225.520 188.880 C 224.297 187.657,222.953 188.303,222.567 190.300 C 222.365 191.345,221.990 192.200,221.733 192.200 C 221.477 192.200,221.117 192.364,220.933 192.564 C 220.740 192.776,220.810 192.808,221.100 192.641 C 221.806 192.234,221.764 194.615,221.053 195.279 C 220.591 195.711,220.598 195.931,221.099 196.695 C 221.436 197.210,221.512 197.600,221.275 197.600 C 221.046 197.600,220.776 197.915,220.676 198.300 C 220.507 198.947,220.489 198.945,220.446 198.276 C 220.416 197.803,220.227 197.661,219.900 197.865 C 219.127 198.348,218.367 198.377,218.654 197.913 C 218.800 197.677,218.671 197.578,218.356 197.685 C 218.017 197.801,217.800 198.447,217.800 199.338 C 217.800 200.142,217.681 200.800,217.535 200.800 C 217.390 200.800,217.327 201.115,217.396 201.500 C 217.465 201.885,217.650 203.142,217.806 204.293 C 218.051 206.097,218.333 206.602,219.845 207.956 C 221.063 209.046,221.600 209.844,221.600 210.563 C 221.600 211.333,221.806 211.600,222.400 211.600 C 223.420 211.600,223.516 214.112,222.571 216.086 C 221.963 217.358,219.324 219.600,218.436 219.600 C 218.163 219.600,218.000 220.646,218.000 222.400 C 218.000 225.140,218.022 225.200,219.027 225.200 L 220.054 225.200 219.227 226.362 C 218.283 227.688,218.086 228.758,218.913 228.072 C 220.463 226.786,221.600 226.771,221.600 228.037 C 221.600 229.080,221.483 229.217,220.784 228.995 C 220.079 228.771,220.002 228.868,220.214 229.714 C 220.552 231.060,219.431 231.465,218.611 230.294 C 218.275 229.815,218.000 229.606,218.000 229.831 C 218.000 230.056,218.216 230.456,218.480 230.720 C 218.853 231.093,218.853 231.200,218.480 231.200 C 218.216 231.200,218.000 231.453,218.000 231.761 C 218.000 232.332,220.863 232.860,223.400 232.757 C 224.060 232.730,225.050 232.729,225.600 232.755 C 226.150 232.781,227.140 232.803,227.800 232.806 C 228.460 232.808,229.900 233.068,231.000 233.385 C 232.720 233.879,239.827 234.259,251.800 234.496 C 252.680 234.513,254.930 234.323,256.800 234.074 C 258.670 233.824,262.360 233.621,265.000 233.623 C 267.640 233.624,293.533 233.674,322.540 233.734 L 375.280 233.842 375.698 232.821 C 376.385 231.143,376.825 203.649,376.261 197.600 C 376.006 194.871,375.910 180.420,376.091 172.200 C 376.110 171.320,376.070 169.880,376.002 169.000 C 375.934 168.120,375.936 166.626,376.006 165.681 C 376.241 162.497,380.958 162.780,323.696 162.551 C 278.341 162.369,272.258 162.416,270.658 162.960 C 269.153 163.470,267.923 163.513,263.325 163.216 C 254.495 162.644,242.566 162.472,237.800 162.848 M221.600 168.243 C 221.600 168.549,221.330 168.800,221.000 168.800 C 220.670 168.800,220.400 168.446,220.400 168.013 C 220.400 167.477,220.592 167.299,221.000 167.455 C 221.330 167.582,221.600 167.936,221.600 168.243 M227.200 183.000 C 227.717 183.550,228.198 184.000,228.270 184.000 C 228.341 184.000,228.400 183.550,228.400 183.000 C 228.400 182.183,228.205 182.000,227.330 182.000 L 226.261 182.000 227.200 183.000 M46.717 186.515 C 48.157 187.982,48.400 188.474,48.400 189.915 L 48.400 191.600 50.300 191.672 L 52.200 191.744 50.300 191.894 L 48.400 192.044 48.400 193.622 L 48.400 195.200 46.600 195.200 L 44.800 195.200 44.800 193.600 L 44.800 192.000 43.200 192.000 L 41.600 192.000 41.600 188.400 L 41.600 184.800 43.317 184.800 C 44.810 184.800,45.252 185.023,46.717 186.515 M267.705 185.082 C 267.214 185.177,266.314 185.179,265.705 185.087 C 265.097 184.995,265.500 184.917,266.600 184.914 C 267.700 184.911,268.197 184.987,267.705 185.082 M44.300 187.232 C 43.376 187.770,43.415 188.509,44.414 189.413 C 45.688 190.566,47.366 188.888,46.213 187.614 C 45.377 186.691,45.267 186.669,44.300 187.232 M218.558 190.149 C 219.053 191.343,219.074 191.593,218.649 191.241 C 218.216 190.882,218.053 190.954,217.890 191.578 C 217.748 192.121,217.921 192.448,218.438 192.612 C 220.239 193.184,220.597 191.095,218.958 189.570 L 217.916 188.600 218.558 190.149 M53.134 192.817 C 51.548 197.368,45.744 200.185,44.181 197.163 C 43.476 195.799,43.598 195.234,44.392 196.190 C 45.664 197.724,48.039 196.986,50.800 194.200 C 53.793 191.181,53.682 191.246,53.134 192.817 M218.200 194.400 C 218.336 194.620,218.707 194.800,219.024 194.800 C 219.341 194.800,219.600 194.620,219.600 194.400 C 219.600 194.180,219.229 194.000,218.776 194.000 C 218.323 194.000,218.064 194.180,218.200 194.400 M218.518 196.359 C 218.173 196.912,218.237 197.155,218.822 197.521 C 219.302 197.821,219.650 197.843,219.809 197.585 C 219.944 197.366,220.223 197.291,220.428 197.417 C 221.083 197.822,220.826 196.919,220.123 196.349 C 219.541 195.876,219.489 195.883,219.753 196.400 C 219.956 196.798,219.874 196.775,219.507 196.330 C 218.992 195.704,218.926 195.706,218.518 196.359 M218.629 209.962 C 218.083 210.570,217.983 210.943,218.286 211.246 C 218.522 211.482,218.641 212.422,218.551 213.337 L 218.388 215.000 219.010 213.400 C 219.352 212.520,219.580 211.194,219.516 210.453 L 219.400 209.106 218.629 209.962 M221.446 221.023 C 221.323 221.345,220.733 221.588,220.113 221.573 C 219.030 221.547,219.024 221.534,219.891 221.116 C 220.381 220.879,220.911 220.306,221.068 219.843 C 221.323 219.092,221.371 219.079,221.511 219.723 C 221.597 220.121,221.568 220.706,221.446 221.023 M223.884 228.000 C 223.769 228.440,223.868 228.800,224.104 228.800 C 224.340 228.800,224.438 228.895,224.322 229.011 C 224.206 229.127,223.591 229.024,222.955 228.781 L 221.800 228.340 222.800 227.784 C 224.106 227.058,224.129 227.063,223.884 228.000 M24.505 233.087 C 25.114 233.179,26.014 233.177,26.505 233.082 C 26.997 232.987,26.500 232.911,25.400 232.914 C 24.300 232.917,23.897 232.995,24.505 233.087 M23.726 234.151 C 23.842 234.454,23.736 234.904,23.489 235.151 C 23.157 235.483,23.171 235.600,23.544 235.600 C 23.821 235.600,23.936 235.780,23.800 236.000 C 23.664 236.220,23.754 236.400,24.000 236.400 C 24.246 236.400,24.336 236.580,24.200 236.800 C 24.064 237.020,24.154 237.200,24.400 237.200 C 24.646 237.200,24.736 237.380,24.600 237.600 C 24.464 237.820,24.644 238.000,25.000 238.000 C 25.356 238.000,25.536 237.820,25.400 237.600 C 25.264 237.380,25.354 237.200,25.600 237.200 C 25.846 237.200,25.936 237.020,25.800 236.800 C 25.664 236.580,25.754 236.400,26.000 236.400 C 26.246 236.400,26.336 236.220,26.200 236.000 C 26.064 235.780,26.278 235.594,26.676 235.587 C 27.351 235.575,27.348 235.535,26.624 234.987 C 25.855 234.406,25.855 234.400,26.624 234.394 C 27.271 234.389,27.301 234.323,26.800 234.000 C 25.837 233.378,23.474 233.494,23.726 234.151 M382.846 243.700 C 382.879 244.338,382.945 244.403,383.071 243.925 C 383.169 243.553,383.553 243.169,383.925 243.071 C 384.403 242.945,384.338 242.879,383.700 242.846 C 383.007 242.811,382.811 243.007,382.846 243.700 M16.155 275.665 C 16.312 276.466,17.200 276.524,17.194 275.733 C 17.189 275.167,17.109 275.124,16.842 275.545 C 16.600 275.928,16.432 275.955,16.278 275.635 C 16.130 275.325,16.090 275.334,16.155 275.665 M18.800 275.800 C 19.217 276.302,19.155 276.400,18.421 276.400 C 17.741 276.400,17.573 276.602,17.672 277.300 C 17.870 278.691,14.029 278.662,203.658 278.731 C 389.889 278.800,381.832 278.870,380.791 277.185 C 380.605 276.884,380.627 276.323,380.842 275.922 C 381.132 275.380,381.083 275.200,380.647 275.200 C 380.328 275.200,379.976 275.425,379.865 275.700 C 379.704 276.100,379.657 276.100,379.632 275.700 C 379.606 275.301,343.187 275.200,198.951 275.200 C 38.420 275.200,18.357 275.267,18.800 275.800 M16.932 277.889 C 17.234 278.378,15.163 278.935,13.300 278.866 C 12.217 278.826,11.995 278.967,11.969 279.709 C 11.610 289.998,12.062 370.993,12.480 371.258 C 13.500 371.905,17.072 371.687,16.176 371.032 C 15.417 370.477,15.397 369.480,15.284 325.701 C 15.164 279.416,15.184 278.800,16.790 278.800 C 17.675 278.800,17.871 278.215,17.138 277.762 C 16.872 277.597,16.784 277.651,16.932 277.889 M382.000 278.556 C 382.000 278.642,382.630 278.786,383.400 278.876 C 384.170 278.966,384.800 278.896,384.800 278.720 C 384.800 278.544,384.170 278.400,383.400 278.400 C 382.630 278.400,382.000 278.470,382.000 278.556 " stroke="none" fill="#fadc60" fill-rule="evenodd"></path><path id="path1" d="M17.886 21.847 C 17.737 21.997,17.116 22.137,16.507 22.160 C 15.516 22.196,15.400 22.347,15.400 23.600 L 15.400 25.000 18.395 25.000 C 21.015 25.000,21.407 24.905,21.535 24.243 C 21.650 23.645,21.504 23.532,20.840 23.705 C 20.378 23.826,20.000 23.762,20.000 23.563 C 20.000 23.363,20.264 23.200,20.587 23.200 C 20.976 23.200,21.087 22.970,20.914 22.520 C 20.751 22.095,20.593 22.020,20.493 22.320 C 20.405 22.584,20.158 22.800,19.943 22.800 C 19.728 22.800,19.664 22.620,19.800 22.400 C 19.936 22.180,19.871 22.000,19.656 22.000 C 19.441 22.000,19.016 21.904,18.712 21.788 C 18.407 21.671,18.036 21.698,17.886 21.847 M378.790 23.026 C 378.006 25.087,378.152 25.200,381.600 25.200 L 384.800 25.200 384.800 24.080 C 384.800 21.744,379.623 20.836,378.790 23.026 M31.295 23.466 C 31.018 23.578,30.607 24.014,30.381 24.435 C 29.978 25.188,32.731 25.200,203.456 25.200 L 376.939 25.200 376.000 24.200 L 375.061 23.200 203.430 23.232 C 109.034 23.249,31.573 23.355,31.295 23.466 M385.075 25.458 C 384.933 25.600,384.811 41.260,384.804 60.258 L 384.792 94.800 385.947 94.800 C 386.582 94.800,387.302 94.560,387.545 94.266 C 388.137 93.553,388.387 40.479,387.800 40.232 C 387.580 40.139,387.625 40.049,387.900 40.032 C 388.452 39.997,388.579 36.148,388.147 32.550 C 387.928 30.733,387.804 30.519,387.050 30.662 L 386.200 30.823 387.053 30.441 C 387.987 30.024,388.296 26.716,387.496 25.700 C 387.082 25.174,385.516 25.018,385.075 25.458 M10.652 40.742 C 9.299 42.238,9.200 44.114,9.200 68.297 C 9.200 91.867,9.218 92.418,10.000 93.200 C 12.101 95.301,12.123 94.983,11.872 65.756 C 11.639 38.725,11.682 39.604,10.652 40.742 M384.770 106.500 C 384.747 112.715,384.689 118.619,384.640 119.620 C 384.553 121.411,384.570 121.437,385.699 121.271 C 387.221 121.047,388.122 119.620,387.879 117.817 C 387.774 117.038,387.848 116.400,388.044 116.400 C 388.240 116.400,388.400 116.063,388.400 115.650 C 388.400 115.136,388.779 114.824,389.607 114.659 C 392.586 114.063,392.393 105.607,389.392 105.264 C 388.018 105.107,387.599 104.609,387.849 103.434 C 388.389 100.906,388.471 98.767,388.048 98.258 C 387.794 97.952,387.699 97.406,387.838 97.046 C 388.201 96.099,387.284 95.200,385.956 95.200 L 384.811 95.200 384.770 106.500 M9.782 96.582 C 8.683 97.681,8.634 97.912,9.194 99.385 C 10.548 102.944,12.429 100.279,11.653 95.900 C 11.550 95.320,10.753 95.610,9.782 96.582 M11.600 117.975 C 11.600 118.455,11.755 118.752,11.944 118.635 C 12.133 118.518,12.221 119.026,12.139 119.763 C 12.016 120.881,12.142 121.145,12.896 121.347 C 14.317 121.728,15.527 121.642,15.838 121.138 C 16.015 120.852,15.948 120.785,15.662 120.962 C 15.408 121.119,15.200 121.057,15.200 120.824 C 15.200 120.591,15.369 120.400,15.576 120.400 C 16.980 120.400,15.674 118.191,14.199 118.070 C 13.325 117.999,12.383 117.752,12.105 117.521 C 11.725 117.205,11.600 117.317,11.600 117.975 M21.417 120.372 C 21.121 120.851,21.874 121.325,22.407 120.996 C 22.854 120.719,22.560 120.000,22.000 120.000 C 21.806 120.000,21.544 120.168,21.417 120.372 M50.917 121.497 C 52.411 121.574,54.751 121.574,56.117 121.496 C 57.482 121.418,56.260 121.355,53.400 121.355 C 50.540 121.356,49.422 121.420,50.917 121.497 M186.727 121.500 C 191.417 121.564,198.977 121.564,203.527 121.499 C 208.077 121.435,204.240 121.383,195.000 121.383 C 185.760 121.383,182.037 121.436,186.727 121.500 M352.700 121.482 C 353.195 121.578,354.005 121.578,354.500 121.482 C 354.995 121.387,354.590 121.309,353.600 121.309 C 352.610 121.309,352.205 121.387,352.700 121.482 M15.200 145.600 C 15.200 145.820,14.945 146.000,14.634 146.000 C 14.052 146.000,11.600 148.819,11.600 149.488 C 11.600 149.975,9.995 151.412,9.096 151.729 C 8.709 151.866,8.416 152.118,8.444 152.289 C 8.756 154.189,8.352 155.200,7.280 155.200 C 5.324 155.200,5.200 155.644,5.200 162.654 C 5.200 169.992,5.438 171.083,7.079 171.271 L 8.200 171.400 8.312 176.700 L 8.423 182.000 7.226 182.000 C 5.193 182.000,5.218 181.616,5.228 212.037 C 5.237 242.408,5.182 241.600,7.249 241.600 C 8.296 241.600,8.400 241.726,8.400 242.986 C 8.400 247.517,10.450 248.466,20.071 248.388 C 34.761 248.268,35.517 248.308,35.803 249.211 C 36.745 252.178,46.922 252.583,47.783 249.688 C 48.154 248.439,48.233 248.400,50.383 248.396 C 51.602 248.394,78.065 248.394,109.189 248.396 L 165.777 248.399 166.292 249.382 C 167.601 251.879,174.400 251.708,174.400 249.177 C 174.400 248.559,174.680 248.400,175.771 248.400 C 177.452 248.400,178.400 247.524,178.400 245.971 C 178.400 244.955,178.548 244.800,179.520 244.800 C 181.396 244.800,181.600 244.242,181.600 239.120 C 181.600 234.725,181.653 234.400,182.371 234.400 C 185.111 234.400,185.215 227.409,182.493 226.205 C 181.607 225.813,181.600 225.739,181.600 216.780 L 181.600 207.750 182.745 206.904 C 185.670 204.741,185.720 192.724,182.807 192.141 L 181.600 191.900 181.600 181.633 L 181.600 171.365 182.878 170.983 C 185.578 170.174,185.357 162.928,182.611 162.238 C 181.603 161.985,181.600 161.971,181.600 157.373 C 181.600 152.438,181.234 151.116,179.485 149.735 C 178.926 149.294,178.402 148.280,178.175 147.200 L 177.797 145.400 170.106 145.291 C 161.637 145.172,160.001 145.483,159.137 147.379 L 158.672 148.400 126.032 148.400 C 94.246 148.400,93.380 148.380,92.911 147.630 C 92.484 146.945,91.794 146.836,86.715 146.652 C 83.572 146.539,79.380 146.272,77.400 146.061 C 75.420 145.849,66.060 145.545,56.600 145.385 C 37.309 145.058,36.148 145.160,35.736 147.219 C 35.397 148.914,31.619 149.038,30.863 147.379 C 30.057 145.611,28.277 145.200,21.413 145.200 C 17.538 145.200,15.200 145.351,15.200 145.600 M230.800 145.535 C 230.224 145.697,229.545 146.361,229.200 147.100 L 228.600 148.383 224.400 148.433 C 222.090 148.461,219.120 148.510,217.800 148.542 L 215.400 148.600 215.277 150.300 C 215.163 151.869,215.067 152.000,214.026 152.000 C 211.674 152.000,211.800 149.374,211.800 198.297 L 211.800 243.271 212.744 244.035 C 213.264 244.456,214.018 244.800,214.420 244.800 C 214.976 244.800,215.181 245.159,215.276 246.295 C 215.455 248.459,211.032 248.348,297.600 248.351 C 385.238 248.354,381.174 248.480,381.194 245.749 C 381.197 245.281,381.505 244.651,381.877 244.349 C 382.337 243.976,382.457 243.960,382.253 244.300 C 382.088 244.575,382.143 244.800,382.376 244.800 C 382.609 244.800,382.800 244.350,382.800 243.800 C 382.800 243.000,383.000 242.800,383.800 242.800 C 384.350 242.800,384.800 242.609,384.800 242.376 C 384.800 242.143,384.575 242.088,384.300 242.253 C 384.013 242.426,384.056 242.239,384.400 241.815 C 384.730 241.409,384.955 241.015,384.900 240.939 C 384.208 239.980,384.916 238.000,385.951 238.000 C 388.296 238.000,388.189 239.508,388.326 204.439 C 388.489 162.771,388.443 162.000,385.771 162.000 L 384.800 162.000 384.759 155.700 C 384.737 152.235,384.750 148.828,384.788 148.128 C 384.921 145.671,383.890 145.200,378.374 145.200 C 372.831 145.200,372.000 145.476,372.000 147.314 L 372.001 148.600 362.822 148.480 L 353.643 148.361 352.393 147.193 C 349.499 144.490,336.000 145.041,336.000 147.862 C 336.000 148.994,323.834 148.597,322.663 147.427 C 321.404 146.168,319.710 145.874,315.564 146.196 C 306.545 146.896,275.872 146.836,273.200 146.113 C 269.666 145.157,261.140 145.172,259.205 146.138 C 257.315 147.081,252.146 147.057,251.090 146.100 C 250.270 145.357,233.128 144.879,230.800 145.535 M169.241 158.250 C 169.549 158.620,169.559 158.800,169.272 158.800 C 169.038 158.800,168.915 159.160,169.000 159.600 C 169.085 160.040,168.974 160.400,168.753 160.400 C 168.533 160.400,168.464 160.580,168.600 160.800 C 168.736 161.020,168.556 161.200,168.200 161.200 C 167.844 161.200,167.652 161.040,167.773 160.844 C 167.894 160.648,167.360 160.369,166.585 160.224 C 165.811 160.078,165.272 159.808,165.387 159.622 C 165.501 159.436,165.317 159.177,164.977 159.046 C 164.599 158.902,164.461 158.975,164.621 159.234 C 164.766 159.468,164.517 159.430,164.068 159.149 C 163.122 158.559,163.274 157.990,164.306 158.260 C 164.694 158.361,165.459 158.277,166.006 158.074 C 167.430 157.544,168.714 157.614,169.241 158.250 M27.000 158.400 L 27.800 158.744 27.000 158.800 L 26.200 158.856 27.000 159.200 C 27.714 159.507,27.722 159.547,27.076 159.572 C 26.678 159.587,26.464 159.780,26.600 160.000 C 26.741 160.228,26.363 160.417,25.724 160.440 L 24.600 160.480 25.600 160.800 C 26.424 161.064,26.459 161.126,25.800 161.154 C 24.689 161.201,24.094 160.727,24.221 159.899 C 24.294 159.430,23.976 159.104,23.265 158.916 L 22.200 158.635 23.400 158.365 C 25.069 157.989,26.067 157.999,27.000 158.400 M56.349 159.077 C 55.876 159.660,55.883 159.706,56.400 159.408 C 56.827 159.162,56.798 159.294,56.299 159.864 C 55.914 160.304,55.714 160.781,55.856 160.923 C 56.331 161.398,54.858 161.672,54.124 161.246 C 53.605 160.943,53.563 160.821,53.976 160.812 C 54.391 160.803,54.335 160.637,53.776 160.220 C 53.036 159.666,53.046 159.649,54.000 159.845 L 55.000 160.050 54.039 159.479 C 52.923 158.814,53.402 158.482,55.549 158.432 C 56.767 158.403,56.845 158.466,56.349 159.077 M109.778 162.403 L 161.988 162.394 163.182 163.644 C 163.838 164.331,164.483 165.232,164.615 165.646 C 164.791 166.201,165.031 166.308,165.527 166.054 C 165.897 165.864,166.431 165.791,166.713 165.892 C 166.996 165.993,167.467 165.876,167.762 165.632 C 168.590 164.944,170.530 167.670,170.238 169.112 C 169.597 172.276,169.604 173.963,170.261 174.330 C 170.682 174.566,170.841 175.001,170.701 175.535 C 170.552 176.104,170.701 176.442,171.164 176.589 C 171.764 176.779,171.808 177.154,171.530 179.703 C 171.356 181.296,171.181 183.376,171.141 184.323 C 171.090 185.525,170.831 186.213,170.285 186.596 C 169.645 187.044,169.551 187.415,169.776 188.613 C 169.983 189.714,169.883 190.266,169.377 190.825 C 169.006 191.235,168.811 191.853,168.944 192.198 C 169.097 192.596,168.732 193.229,167.943 193.935 C 166.836 194.924,166.767 195.110,167.305 195.647 C 167.811 196.154,167.825 196.406,167.393 197.214 C 166.938 198.063,166.988 198.308,167.815 199.291 C 168.332 199.905,168.684 200.764,168.599 201.203 C 168.482 201.813,168.662 202.000,169.369 202.000 C 170.229 202.000,170.272 202.111,170.000 203.600 C 169.723 205.114,169.760 205.200,170.697 205.200 C 171.436 205.200,171.624 205.361,171.442 205.835 C 170.776 207.571,170.739 209.452,171.362 209.968 C 171.878 210.397,172.000 211.372,172.000 215.073 C 172.000 217.681,172.155 219.552,172.360 219.425 C 172.558 219.302,172.693 219.903,172.660 220.760 C 172.627 221.617,172.465 222.236,172.300 222.135 C 172.135 222.035,172.000 222.606,172.000 223.403 C 172.000 224.651,171.893 224.820,171.233 224.611 C 170.622 224.416,170.507 224.524,170.669 225.143 C 170.781 225.569,170.600 226.342,170.267 226.859 C 169.935 227.377,169.538 228.657,169.385 229.705 C 169.232 230.753,168.990 231.682,168.847 231.771 C 168.703 231.860,168.618 232.937,168.658 234.166 C 168.714 235.899,168.598 236.400,168.141 236.400 C 167.818 236.400,167.656 236.232,167.783 236.028 C 167.909 235.823,167.821 235.537,167.587 235.392 C 167.287 235.207,167.290 234.973,167.597 234.603 C 167.918 234.217,167.896 234.032,167.517 233.904 C 167.101 233.764,167.107 233.600,167.549 233.065 C 167.851 232.699,167.917 232.400,167.696 232.400 C 167.474 232.400,167.199 232.040,167.084 231.600 C 166.662 229.987,164.195 230.863,163.482 232.878 C 163.080 234.015,162.202 234.032,109.300 233.914 C 81.085 233.851,58.000 233.946,58.000 234.124 C 58.000 234.302,57.820 234.336,57.600 234.200 C 57.380 234.064,57.200 234.154,57.200 234.400 C 57.200 234.646,57.020 234.736,56.800 234.600 C 56.580 234.464,56.400 234.554,56.400 234.800 C 56.400 235.046,56.192 235.119,55.938 234.962 C 55.654 234.786,55.585 234.852,55.758 235.133 C 55.914 235.384,56.101 236.218,56.176 236.986 L 56.311 238.384 54.295 238.338 C 52.445 238.297,52.356 238.252,53.209 237.795 L 54.138 237.298 53.216 237.005 C 52.500 236.778,52.418 236.634,52.847 236.362 C 53.311 236.068,53.308 236.011,52.824 236.006 C 52.404 236.002,52.458 235.828,53.024 235.367 C 53.759 234.768,53.760 234.747,53.049 234.974 C 52.636 235.106,52.096 235.055,51.849 234.861 C 51.602 234.668,51.130 234.495,50.800 234.478 C 50.144 234.444,49.332 234.246,48.400 233.894 C 48.070 233.769,47.530 233.654,47.200 233.638 C 45.194 233.541,43.172 233.224,42.632 232.922 C 42.273 232.721,40.344 232.732,38.104 232.949 C 32.169 233.521,28.601 233.445,29.028 232.755 C 29.492 232.003,28.319 231.613,25.580 231.606 C 22.650 231.599,22.019 231.218,21.960 229.420 C 21.923 228.299,21.898 228.278,21.652 229.160 L 21.383 230.120 20.891 229.041 C 20.246 227.625,20.231 226.871,20.861 227.501 C 21.964 228.604,23.637 223.018,23.587 218.400 C 23.572 216.970,23.562 214.938,23.566 213.884 C 23.571 212.533,23.240 211.353,22.446 209.884 C 21.826 208.738,21.196 206.900,21.045 205.800 C 20.524 202.011,20.378 201.600,19.554 201.600 C 18.896 201.600,18.840 201.473,19.200 200.800 C 19.530 200.183,19.504 200.000,19.086 200.000 C 18.696 200.000,18.524 199.313,18.476 197.555 C 18.417 195.434,18.487 195.174,19.002 195.602 C 19.508 196.021,19.574 195.915,19.454 194.878 C 19.320 193.732,19.369 193.684,20.304 194.040 C 21.225 194.390,21.282 194.341,21.098 193.377 C 20.977 192.743,21.098 192.260,21.409 192.141 C 22.097 191.877,22.947 187.182,22.702 185.005 C 22.593 184.043,22.665 183.095,22.861 182.899 C 23.071 182.689,22.958 181.919,22.590 181.037 C 22.244 180.210,21.991 179.233,22.027 178.866 C 22.196 177.147,22.022 176.684,21.400 177.200 C 20.911 177.606,20.800 177.585,20.800 177.086 C 20.800 176.672,20.542 176.542,20.000 176.684 C 19.535 176.806,19.200 176.696,19.200 176.423 C 19.200 176.164,19.051 176.045,18.870 176.157 C 18.688 176.269,18.222 175.300,17.834 174.004 C 17.031 171.324,17.652 169.403,19.469 168.947 C 19.993 168.815,20.264 168.510,20.140 168.189 C 20.027 167.893,19.680 167.748,19.369 167.867 C 19.059 167.986,18.921 168.273,19.064 168.504 C 19.216 168.749,19.131 168.805,18.862 168.638 C 18.608 168.481,18.400 167.902,18.400 167.350 C 18.400 166.799,18.211 165.995,17.981 165.564 C 17.372 164.427,18.296 163.671,20.119 163.816 C 20.930 163.880,21.696 163.768,21.821 163.567 C 21.945 163.365,22.337 163.200,22.692 163.200 C 23.047 163.200,23.672 162.897,24.081 162.526 C 24.779 161.895,25.043 161.895,28.313 162.540 C 32.230 163.313,40.487 163.607,44.169 163.106 C 45.506 162.923,47.590 162.690,48.800 162.587 C 50.010 162.484,52.170 162.253,53.600 162.074 C 55.030 161.895,56.508 161.898,56.885 162.080 C 57.261 162.263,81.063 162.408,109.778 162.403 M263.325 163.216 C 267.923 163.513,269.153 163.470,270.658 162.960 C 272.258 162.416,278.341 162.369,323.696 162.551 C 380.958 162.780,376.241 162.497,376.006 165.681 C 375.936 166.626,375.934 168.120,376.002 169.000 C 376.070 169.880,376.110 171.320,376.091 172.200 C 375.910 180.420,376.006 194.871,376.261 197.600 C 376.825 203.649,376.385 231.143,375.698 232.821 L 375.280 233.842 322.540 233.734 C 293.533 233.674,267.640 233.624,265.000 233.623 C 262.360 233.621,258.670 233.824,256.800 234.074 C 254.930 234.323,252.680 234.513,251.800 234.496 C 239.827 234.259,232.720 233.879,231.000 233.385 C 229.900 233.068,228.460 232.808,227.800 232.806 C 227.140 232.803,226.150 232.781,225.600 232.755 C 225.050 232.729,224.060 232.730,223.400 232.757 C 220.863 232.860,218.000 232.332,218.000 231.761 C 218.000 231.453,218.216 231.200,218.480 231.200 C 218.853 231.200,218.853 231.093,218.480 230.720 C 218.216 230.456,218.000 230.056,218.000 229.831 C 218.000 229.606,218.275 229.815,218.611 230.294 C 219.431 231.465,220.552 231.060,220.214 229.714 C 220.002 228.868,220.079 228.771,220.784 228.995 C 221.483 229.217,221.600 229.080,221.600 228.037 C 221.600 226.771,220.463 226.786,218.913 228.072 C 218.086 228.758,218.283 227.688,219.227 226.362 L 220.054 225.200 219.027 225.200 C 218.022 225.200,218.000 225.140,218.000 222.400 C 218.000 220.646,218.163 219.600,218.436 219.600 C 219.324 219.600,221.963 217.358,222.571 216.086 C 223.516 214.112,223.420 211.600,222.400 211.600 C 221.806 211.600,221.600 211.333,221.600 210.563 C 221.600 209.844,221.063 209.046,219.845 207.956 C 218.333 206.602,218.051 206.097,217.806 204.293 C 217.650 203.142,217.465 201.885,217.396 201.500 C 217.327 201.115,217.390 200.800,217.535 200.800 C 217.681 200.800,217.800 200.142,217.800 199.338 C 217.800 198.447,218.017 197.801,218.356 197.685 C 218.671 197.578,218.800 197.677,218.654 197.913 C 218.367 198.377,219.127 198.348,219.900 197.865 C 220.227 197.661,220.416 197.803,220.446 198.276 C 220.489 198.945,220.507 198.947,220.676 198.300 C 220.776 197.915,221.046 197.600,221.275 197.600 C 221.512 197.600,221.436 197.210,221.099 196.695 C 220.598 195.931,220.591 195.711,221.053 195.279 C 221.764 194.615,221.806 192.234,221.100 192.641 C 220.810 192.808,220.740 192.776,220.933 192.564 C 221.117 192.364,221.477 192.200,221.733 192.200 C 221.990 192.200,222.365 191.345,222.567 190.300 C 222.953 188.303,224.297 187.657,225.520 188.880 C 225.893 189.253,226.000 189.233,226.000 188.789 C 226.000 188.475,225.257 187.539,224.349 186.709 L 222.699 185.200 223.874 185.200 C 224.714 185.200,225.301 185.539,225.927 186.387 C 226.410 187.040,227.191 187.781,227.663 188.034 L 228.520 188.493 227.703 187.346 C 227.254 186.716,226.490 185.842,226.006 185.404 C 225.522 184.967,224.966 184.310,224.770 183.944 C 224.051 182.601,225.948 183.646,226.776 185.049 C 227.542 186.347,228.120 186.720,230.400 187.385 C 231.382 187.671,231.378 187.656,230.206 186.538 L 229.011 185.400 230.744 185.200 L 232.476 185.000 230.638 183.406 C 229.627 182.530,228.786 181.540,228.768 181.206 C 228.747 180.796,228.672 180.761,228.535 181.100 C 227.871 182.746,225.200 181.181,225.200 179.145 C 225.200 178.302,225.093 178.343,223.688 179.714 L 222.177 181.190 221.425 179.795 C 221.012 179.028,220.488 178.400,220.261 178.400 C 220.033 178.400,220.196 178.136,220.624 177.813 C 221.568 177.098,220.692 176.957,219.093 177.565 C 218.425 177.819,218.119 177.788,218.087 177.465 C 218.062 177.209,217.873 175.816,217.668 174.369 C 217.247 171.405,217.342 169.698,217.961 169.079 C 218.209 168.831,218.236 168.483,218.028 168.230 C 217.715 167.849,217.448 165.758,217.559 164.568 C 217.583 164.322,218.501 164.130,219.700 164.120 C 220.855 164.111,223.060 163.989,224.600 163.849 C 226.140 163.709,228.750 163.505,230.400 163.395 C 232.050 163.285,235.380 163.038,237.800 162.848 C 242.566 162.472,254.495 162.644,263.325 163.216 M220.400 168.013 C 220.400 168.446,220.670 168.800,221.000 168.800 C 221.330 168.800,221.600 168.549,221.600 168.243 C 221.600 167.936,221.330 167.582,221.000 167.455 C 220.592 167.299,220.400 167.477,220.400 168.013 M228.400 183.000 C 228.400 183.550,228.341 184.000,228.270 184.000 C 228.198 184.000,227.717 183.550,227.200 183.000 L 226.261 182.000 227.330 182.000 C 228.205 182.000,228.400 182.183,228.400 183.000 M41.600 188.400 L 41.600 192.000 43.200 192.000 L 44.800 192.000 44.800 193.600 L 44.800 195.200 46.600 195.200 L 48.400 195.200 48.400 193.622 L 48.400 192.044 50.300 191.894 L 52.200 191.744 50.300 191.672 L 48.400 191.600 48.400 189.915 C 48.400 187.419,45.797 184.800,43.317 184.800 L 41.600 184.800 41.600 188.400 M265.705 185.087 C 266.314 185.179,267.214 185.177,267.705 185.082 C 268.197 184.987,267.700 184.911,266.600 184.914 C 265.500 184.917,265.097 184.995,265.705 185.087 M46.213 187.614 C 47.366 188.888,45.688 190.566,44.414 189.413 C 43.415 188.509,43.376 187.770,44.300 187.232 C 45.267 186.669,45.377 186.691,46.213 187.614 M220.000 191.446 C 220.000 192.534,219.461 192.937,218.438 192.612 C 217.921 192.448,217.748 192.121,217.890 191.578 C 218.053 190.954,218.216 190.882,218.649 191.241 C 219.074 191.593,219.053 191.343,218.558 190.149 L 217.916 188.600 218.958 189.570 C 219.531 190.103,220.000 190.947,220.000 191.446 M50.800 194.200 C 48.039 196.986,45.664 197.724,44.392 196.190 C 43.598 195.234,43.476 195.799,44.181 197.163 C 45.744 200.185,51.548 197.368,53.134 192.817 C 53.682 191.246,53.793 191.181,50.800 194.200 M219.600 194.400 C 219.600 194.620,219.341 194.800,219.024 194.800 C 218.707 194.800,218.336 194.620,218.200 194.400 C 218.064 194.180,218.323 194.000,218.776 194.000 C 219.229 194.000,219.600 194.180,219.600 194.400 M219.753 196.400 C 219.489 195.883,219.541 195.876,220.123 196.349 C 220.826 196.919,221.083 197.822,220.428 197.417 C 220.223 197.291,219.944 197.366,219.809 197.585 C 219.650 197.843,219.302 197.821,218.822 197.521 C 218.237 197.155,218.173 196.912,218.518 196.359 C 218.926 195.706,218.992 195.704,219.507 196.330 C 219.874 196.775,219.956 196.798,219.753 196.400 M219.010 213.400 L 218.388 215.000 218.551 213.337 C 218.641 212.422,218.522 211.482,218.286 211.246 C 217.983 210.943,218.083 210.570,218.629 209.962 L 219.400 209.106 219.516 210.453 C 219.580 211.194,219.352 212.520,219.010 213.400 M221.068 219.843 C 220.911 220.306,220.381 220.879,219.891 221.116 C 219.024 221.534,219.030 221.547,220.113 221.573 C 221.281 221.601,221.776 220.946,221.511 219.723 C 221.371 219.079,221.323 219.092,221.068 219.843 M222.800 227.784 L 221.800 228.340 222.955 228.781 C 223.591 229.024,224.206 229.127,224.322 229.011 C 224.438 228.895,224.340 228.800,224.104 228.800 C 223.868 228.800,223.769 228.440,223.884 228.000 C 224.129 227.063,224.106 227.058,222.800 227.784 M26.505 233.082 C 26.014 233.177,25.114 233.179,24.505 233.087 C 23.897 232.995,24.300 232.917,25.400 232.914 C 26.500 232.911,26.997 232.987,26.505 233.082 M26.800 234.000 C 27.301 234.323,27.271 234.389,26.624 234.394 C 25.855 234.400,25.855 234.406,26.624 234.987 C 27.348 235.535,27.351 235.575,26.676 235.587 C 26.278 235.594,26.064 235.780,26.200 236.000 C 26.336 236.220,26.246 236.400,26.000 236.400 C 25.754 236.400,25.664 236.580,25.800 236.800 C 25.936 237.020,25.846 237.200,25.600 237.200 C 25.354 237.200,25.264 237.380,25.400 237.600 C 25.536 237.820,25.356 238.000,25.000 238.000 C 24.644 238.000,24.464 237.820,24.600 237.600 C 24.736 237.380,24.646 237.200,24.400 237.200 C 24.154 237.200,24.064 237.020,24.200 236.800 C 24.336 236.580,24.246 236.400,24.000 236.400 C 23.754 236.400,23.664 236.220,23.800 236.000 C 23.936 235.780,23.821 235.600,23.544 235.600 C 23.171 235.600,23.157 235.483,23.489 235.151 C 23.736 234.904,23.842 234.454,23.726 234.151 C 23.474 233.494,25.837 233.378,26.800 234.000 M383.200 244.000 C 383.200 244.907,383.615 245.025,384.320 244.320 C 385.025 243.615,384.907 243.200,384.000 243.200 C 383.467 243.200,383.200 243.467,383.200 244.000 M12.284 275.449 C 11.798 275.935,11.956 277.275,12.462 276.962 C 12.750 276.784,12.815 276.852,12.634 277.145 C 12.475 277.402,12.177 277.509,11.972 277.383 C 11.768 277.256,11.600 277.571,11.600 278.082 C 11.600 279.118,13.635 279.286,16.270 278.468 C 16.968 278.251,17.620 278.153,17.717 278.250 C 17.815 278.348,17.807 277.971,17.701 277.414 C 17.540 276.573,17.659 276.400,18.402 276.400 C 19.153 276.400,19.217 276.303,18.800 275.800 C 18.526 275.470,18.054 275.200,17.751 275.200 C 17.448 275.200,17.200 275.470,17.200 275.800 C 17.200 276.130,17.014 276.400,16.787 276.400 C 16.561 276.400,16.271 276.130,16.145 275.800 C 16.018 275.470,15.743 275.200,15.534 275.200 C 15.324 275.200,15.288 275.425,15.453 275.700 C 15.677 276.072,15.606 276.094,15.177 275.785 C 14.465 275.273,12.669 275.064,12.284 275.449 M380.833 275.938 C 380.617 276.342,380.603 276.882,380.802 277.202 C 380.992 277.510,381.058 277.905,380.950 278.081 C 380.842 278.256,381.663 278.400,382.775 278.400 L 384.797 278.400 384.898 324.867 C 384.984 364.102,385.086 371.362,385.556 371.519 C 385.910 371.637,386.003 371.529,385.814 371.222 C 385.602 370.879,385.755 370.890,386.348 371.260 C 387.810 372.173,388.202 371.226,388.185 366.822 C 388.176 364.392,387.988 362.668,387.694 362.314 C 387.341 361.888,387.335 361.625,387.671 361.289 C 388.297 360.663,388.590 325.890,388.205 297.869 L 387.904 275.939 386.924 275.492 C 386.206 275.165,385.630 275.164,384.772 275.488 C 384.127 275.731,383.600 275.811,383.599 275.665 C 383.597 275.027,381.194 275.264,380.833 275.938 M9.983 290.218 L 9.027 291.236 9.014 325.402 C 8.999 362.435,8.875 360.317,11.098 360.983 L 11.997 361.253 11.965 325.771 C 11.929 285.987,12.042 288.026,9.983 290.218 M10.160 362.706 C 7.576 364.432,9.559 371.678,12.591 371.588 C 12.816 371.581,12.730 371.417,12.400 371.224 C 11.925 370.945,11.804 369.992,11.817 366.636 C 11.835 362.300,11.601 361.744,10.160 362.706 M15.200 372.720 C 15.200 374.621,17.391 375.588,18.779 374.300 C 19.210 373.900,19.261 373.900,19.035 374.300 C 18.841 374.644,19.076 374.800,19.786 374.800 C 20.528 374.800,20.930 374.510,21.210 373.774 C 21.994 371.713,21.848 371.600,18.400 371.600 L 15.200 371.600 15.200 372.720 M30.598 372.398 C 31.317 373.192,32.054 373.198,168.760 373.394 C 328.742 373.624,324.406 373.620,351.400 373.543 C 362.840 373.510,372.968 373.618,373.908 373.784 C 375.702 374.101,376.469 373.766,377.236 372.333 C 377.616 371.623,372.198 371.600,203.752 371.600 C 30.026 371.600,29.877 371.601,30.598 372.398 M378.405 372.100 C 378.417 373.193,378.912 374.378,379.265 374.160 C 379.486 374.024,379.447 373.697,379.170 373.364 C 378.339 372.363,379.276 372.766,380.269 373.837 C 381.097 374.731,381.321 374.799,381.892 374.337 C 382.360 373.957,382.466 373.946,382.253 374.300 C 382.088 374.575,382.143 374.800,382.376 374.800 C 382.609 374.800,382.803 374.575,382.806 374.300 C 382.810 373.968,382.940 374.002,383.192 374.400 C 383.523 374.924,383.662 374.909,384.286 374.286 C 384.869 373.702,384.900 373.509,384.455 373.234 C 384.020 372.965,384.014 372.862,384.426 372.725 C 384.710 372.630,384.809 372.339,384.647 372.076 C 384.229 371.400,378.398 371.422,378.405 372.100 " stroke="none" fill="#f9e462" fill-rule="evenodd"></path><path id="path2" d="M20.904 26.800 C 20.489 27.758,19.941 28.400,19.538 28.400 C 16.224 28.400,16.400 25.870,16.400 73.380 C 16.400 121.556,16.052 117.194,19.900 117.206 C 75.302 117.376,381.367 117.092,382.200 116.869 C 383.481 116.527,384.144 115.489,384.546 113.200 C 384.785 111.841,384.760 111.858,383.696 113.776 C 382.905 115.202,382.266 115.845,381.400 116.085 C 380.740 116.268,298.845 116.429,199.411 116.442 L 18.622 116.467 17.911 115.589 C 17.240 114.761,17.200 112.374,17.200 73.018 L 17.200 31.324 18.042 30.562 C 19.411 29.323,381.093 29.177,383.127 30.414 L 384.455 31.222 384.127 33.511 C 383.947 34.770,383.851 36.700,383.913 37.800 C 383.975 38.900,384.168 51.770,384.342 66.400 L 384.658 93.000 384.629 61.268 C 384.600 30.014,384.588 29.527,383.800 28.952 C 383.360 28.631,382.640 28.058,382.200 27.678 C 379.507 25.357,375.974 24.277,375.521 25.637 C 375.302 26.294,342.264 27.074,341.080 26.450 C 340.416 26.100,309.813 26.034,216.200 26.183 C 148.000 26.291,85.360 26.382,77.000 26.384 C 55.203 26.391,29.664 25.945,30.600 25.574 C 31.065 25.389,29.350 25.244,26.499 25.228 L 21.598 25.200 20.904 26.800 M374.700 26.676 C 374.315 26.776,373.685 26.776,373.300 26.676 C 372.915 26.575,373.230 26.493,374.000 26.493 C 374.770 26.493,375.085 26.575,374.700 26.676 M47.505 27.075 C 47.122 27.175,46.402 27.179,45.905 27.083 C 45.407 26.987,45.720 26.905,46.600 26.901 C 47.480 26.896,47.887 26.975,47.505 27.075 M370.900 27.082 C 370.405 27.178,369.595 27.178,369.100 27.082 C 368.605 26.987,369.010 26.909,370.000 26.909 C 370.990 26.909,371.395 26.987,370.900 27.082 M384.167 98.237 C 384.018 99.027,384.069 101.142,384.278 102.937 L 384.660 106.200 384.630 101.501 C 384.597 96.354,384.564 96.120,384.167 98.237 M17.095 280.105 C 16.428 280.772,16.395 283.176,16.495 323.563 C 16.614 372.050,16.270 367.667,20.001 368.162 C 21.932 368.419,22.644 368.823,22.107 369.359 C 21.958 369.508,21.773 370.101,21.696 370.675 L 21.556 371.720 29.278 371.457 C 39.867 371.095,374.621 371.053,376.532 371.412 C 378.370 371.759,379.822 371.104,380.615 369.570 C 380.916 368.989,381.671 368.302,382.292 368.045 C 383.688 367.466,384.281 366.554,384.563 364.549 L 384.782 363.000 384.323 364.335 C 384.070 365.070,383.408 365.970,382.850 366.335 C 381.152 367.448,19.272 367.351,18.042 366.238 L 17.200 365.476 17.206 323.438 C 17.209 300.317,17.355 281.176,17.529 280.902 C 17.968 280.210,383.422 280.154,384.255 280.846 C 384.851 281.340,384.977 280.897,384.468 280.096 C 383.883 279.175,18.016 279.184,17.095 280.105 M384.257 284.300 C 383.932 286.265,384.018 357.846,384.347 359.372 C 384.486 360.016,384.600 343.051,384.600 321.672 C 384.600 300.292,384.579 282.800,384.552 282.800 C 384.526 282.800,384.393 283.475,384.257 284.300 " stroke="none" fill="#3c3c3c" fill-rule="evenodd"></path><path id="path3" d="M21.167 24.962 C 21.075 25.051,19.830 25.194,18.400 25.279 L 15.800 25.434 15.543 27.817 C 15.090 32.027,15.157 116.372,15.614 117.226 C 16.201 118.322,384.137 118.463,384.557 117.367 C 384.691 117.019,384.782 115.804,384.760 114.667 L 384.720 112.600 384.352 114.169 C 383.883 116.169,383.471 116.646,381.950 116.950 C 381.096 117.121,64.802 117.344,19.900 117.206 C 16.052 117.194,16.400 121.556,16.400 73.380 C 16.400 25.870,16.224 28.400,19.538 28.400 C 19.944 28.400,20.494 27.747,20.925 26.753 C 21.553 25.304,21.664 24.478,21.167 24.962 M30.600 25.574 C 29.664 25.945,55.203 26.391,77.000 26.384 C 85.360 26.382,148.071 26.293,216.357 26.188 C 308.300 26.047,340.656 26.115,341.059 26.449 C 341.977 27.211,375.600 26.337,375.600 25.552 C 375.600 25.111,31.711 25.133,30.600 25.574 M379.800 25.820 C 380.240 26.147,380.870 26.637,381.200 26.909 C 381.530 27.180,382.340 27.821,383.000 28.333 C 383.660 28.844,384.309 29.654,384.441 30.132 C 384.576 30.617,384.752 29.721,384.841 28.099 L 385.000 25.198 382.000 25.212 C 379.251 25.224,379.067 25.275,379.800 25.820 M373.300 26.676 C 373.685 26.776,374.315 26.776,374.700 26.676 C 375.085 26.575,374.770 26.493,374.000 26.493 C 373.230 26.493,372.915 26.575,373.300 26.676 M45.905 27.083 C 46.402 27.179,47.122 27.175,47.505 27.075 C 47.887 26.975,47.480 26.896,46.600 26.901 C 45.720 26.905,45.407 26.987,45.905 27.083 M369.100 27.082 C 369.595 27.178,370.405 27.178,370.900 27.082 C 371.395 26.987,370.990 26.909,370.000 26.909 C 369.010 26.909,368.605 26.987,369.100 27.082 M11.748 34.800 C 11.748 37.110,11.814 38.055,11.895 36.900 C 11.976 35.745,11.976 33.855,11.895 32.700 C 11.814 31.545,11.748 32.490,11.748 34.800 M384.548 37.200 C 384.548 39.510,384.614 40.455,384.695 39.300 C 384.776 38.145,384.776 36.255,384.695 35.100 C 384.614 33.945,384.548 34.890,384.548 37.200 M384.514 100.200 C 384.517 101.300,384.595 101.703,384.687 101.095 C 384.779 100.486,384.777 99.586,384.682 99.095 C 384.587 98.603,384.511 99.100,384.514 100.200 M11.755 110.200 C 11.756 113.060,11.820 114.178,11.897 112.683 C 11.974 111.189,11.974 108.849,11.896 107.483 C 11.818 106.118,11.755 107.340,11.755 110.200 M16.878 278.731 C 15.169 278.973,15.163 279.135,15.284 325.701 C 15.397 369.480,15.417 370.477,16.176 371.032 C 17.279 371.839,21.600 371.813,21.600 371.000 C 21.600 370.015,21.651 369.820,22.031 369.363 C 22.568 368.716,22.093 368.440,19.956 368.156 C 16.278 367.668,16.614 371.995,16.495 323.642 C 16.411 289.760,16.494 280.826,16.895 280.281 C 17.561 279.376,383.894 279.192,384.468 280.096 C 384.697 280.457,384.789 280.398,384.794 279.887 C 384.797 279.496,384.575 279.090,384.300 278.987 C 383.744 278.779,18.340 278.523,16.878 278.731 M11.693 282.800 C 11.693 283.570,11.775 283.885,11.876 283.500 C 11.976 283.115,11.976 282.485,11.876 282.100 C 11.775 281.715,11.693 282.030,11.693 282.800 M384.589 325.200 C 384.589 340.710,384.639 347.055,384.700 339.300 C 384.761 331.545,384.761 318.855,384.700 311.100 C 384.639 303.345,384.589 309.690,384.589 325.200 M384.387 365.500 C 384.369 366.489,383.609 367.369,382.100 368.149 C 381.385 368.518,380.800 369.005,380.800 369.229 C 380.800 369.454,380.339 370.065,379.777 370.587 L 378.753 371.535 381.737 371.668 L 384.720 371.800 384.767 368.300 C 384.792 366.375,384.720 364.800,384.606 364.800 C 384.493 364.800,384.394 365.115,384.387 365.500 M169.600 371.201 L 30.600 371.402 203.567 371.501 C 298.698 371.555,376.458 371.529,376.367 371.442 C 376.003 371.096,301.971 371.010,169.600 371.201 " stroke="none" fill="#444444" fill-rule="evenodd"></path><path id="path4" d="M19.400 29.886 C 17.039 30.465,17.200 27.309,17.200 73.018 C 17.200 112.374,17.240 114.761,17.911 115.589 L 18.622 116.467 199.411 116.442 C 298.845 116.429,380.740 116.268,381.400 116.085 C 383.866 115.402,384.895 112.562,384.547 107.400 C 384.384 104.980,384.261 101.740,384.274 100.200 C 384.484 75.240,384.299 42.193,383.938 40.310 C 383.618 38.637,383.621 37.205,383.950 34.994 C 384.539 31.032,384.589 31.303,383.103 30.399 C 381.864 29.646,22.447 29.139,19.400 29.886 M199.623 280.298 C 54.813 280.380,17.782 280.502,17.529 280.900 C 17.355 281.175,17.209 300.317,17.206 323.438 L 17.200 365.476 18.042 366.238 C 19.277 367.356,381.153 367.447,382.857 366.330 C 384.372 365.338,385.032 362.606,384.454 359.727 C 383.825 356.594,383.814 286.506,384.442 283.576 C 384.952 281.200,384.597 280.575,382.600 280.337 C 381.940 280.259,299.601 280.241,199.623 280.298 " stroke="none" fill="#040404" fill-rule="evenodd"></path></g></svg>